<svg width="24" height="24" viewBox="0 0 24 24" fill="none" xmlns="http://www.w3.org/2000/svg">
<path d="M0 3.42857C0 2.51926 0.361224 1.64719 1.00421 1.00421C1.64719 0.361224 2.51926 0 3.42857 0H20.5714C21.4807 0 22.3528 0.361224 22.9958 1.00421C23.6388 1.64719 24 2.51926 24 3.42857V20.5714C24 21.4807 23.6388 22.3528 22.9958 22.9958C22.3528 23.6388 21.4807 24 20.5714 24H3.42857C2.51926 24 1.64719 23.6388 1.00421 22.9958C0.361224 22.3528 0 21.4807 0 20.5714V3.42857Z" fill="#00D26A"/>
<path d="M9.636 18C9.30771 18 8.97943 17.8774 8.72829 17.6314L3.80486 12.7954C3.68595 12.6794 3.59145 12.5408 3.52693 12.3877C3.46241 12.2346 3.42917 12.0701 3.42917 11.904C3.42917 11.7379 3.46241 11.5734 3.52693 11.4203C3.59145 11.2672 3.68595 11.1286 3.80486 11.0126C4.04769 10.7758 4.37342 10.6433 4.71257 10.6433C5.05172 10.6433 5.37745 10.7758 5.62029 11.0126L9.636 14.9563L18.3797 6.36943C18.6226 6.13267 18.9483 6.00016 19.2874 6.00016C19.6266 6.00016 19.9523 6.13267 20.1951 6.36943C20.3142 6.48539 20.4088 6.624 20.4733 6.7771C20.5379 6.93021 20.5712 7.09469 20.5712 7.26086C20.5712 7.42702 20.5379 7.59151 20.4733 7.74461C20.4088 7.89771 20.3142 8.03633 20.1951 8.15229L10.5437 17.6306C10.3016 17.8685 9.97542 18.0012 9.636 18Z" fill="#F4F4F4"/>
</svg>
