<svg width="18" height="18" viewBox="0 0 18 18" fill="none" xmlns="http://www.w3.org/2000/svg">
<path d="M14.6791 0.601687C14.8558 0.414917 15.0681 0.265459 15.3035 0.162146C15.5389 0.0588325 15.7927 0.00376077 16.0497 0.000185972C16.3068 -0.00338882 16.5619 0.0446058 16.8001 0.141333C17.0383 0.23806 17.2547 0.381557 17.4365 0.563341C17.6183 0.745125 17.7618 0.961508 17.8585 1.1997C17.9552 1.43789 18.0032 1.69306 17.9996 1.95011C17.9961 2.20717 17.941 2.4609 17.8377 2.69631C17.7344 2.93172 17.5849 3.14403 17.3981 3.32069L11.7627 8.95615C11.7552 8.9636 11.7493 8.97244 11.7453 8.98218C11.7412 8.99191 11.7391 9.00235 11.7391 9.01289C11.7391 9.02343 11.7412 9.03387 11.7453 9.04361C11.7493 9.05334 11.7552 9.06219 11.7627 9.06963L17.3981 14.7051C17.5792 14.8831 17.7231 15.0953 17.8217 15.3292C17.9204 15.5632 17.9717 15.8144 17.9727 16.0683C17.9738 16.3221 17.9246 16.5737 17.8279 16.8085C17.7313 17.0433 17.5891 17.2566 17.4096 17.4362C17.2301 17.6157 17.0168 17.758 16.782 17.8547C16.5473 17.9514 16.2957 18.0007 16.0418 17.9997C15.7879 17.9987 15.5367 17.9474 15.3027 17.8488C15.0687 17.7503 14.8566 17.6063 14.6785 17.4254L9.04304 11.7899C9.03559 11.7824 9.02675 11.7765 9.01701 11.7725C9.00728 11.7684 8.99684 11.7664 8.9863 11.7664C8.97576 11.7664 8.96532 11.7684 8.95558 11.7725C8.94585 11.7765 8.937 11.7824 8.92956 11.7899L3.29409 17.4254C3.11605 17.6064 2.90393 17.7504 2.66997 17.849C2.436 17.9476 2.18483 17.9989 1.93094 18C1.67704 18.001 1.42545 17.9518 1.19067 17.8552C0.955887 17.7585 0.742567 17.6163 0.563013 17.4368C0.383459 17.2573 0.241223 17.044 0.144511 16.8093C0.0477984 16.5745 -0.00147706 16.3229 -0.000473248 16.069C0.000530561 15.8151 0.0517938 15.5639 0.15036 15.33C0.248925 15.096 0.392843 14.8838 0.573811 14.7057L6.20928 9.07027C6.21674 9.06283 6.22266 9.05398 6.2267 9.04425C6.23074 9.03451 6.23282 9.02407 6.23282 9.01353C6.23282 9.00299 6.23074 8.99255 6.2267 8.98282C6.22266 8.97308 6.21674 8.96424 6.20928 8.95679L0.573811 3.32133C0.217919 2.95968 0.019349 2.47205 0.021355 1.96466C0.0233611 1.45726 0.22578 0.971219 0.584521 0.612394C0.943262 0.253569 1.42926 0.0510351 1.93665 0.0489094C2.44404 0.0467838 2.93172 0.245239 3.29345 0.601045L8.92892 6.23651C8.93636 6.24397 8.94521 6.2499 8.95494 6.25394C8.96468 6.25798 8.97512 6.26005 8.98566 6.26005C8.9962 6.26005 9.00664 6.25798 9.01637 6.25394C9.02611 6.2499 9.03495 6.24397 9.0424 6.23651L14.6791 0.601687Z" fill="#F92F60"/>
</svg>
