<svg width="18" height="18" viewBox="0 0 18 18" fill="none" xmlns="http://www.w3.org/2000/svg">
<path d="M12.3765 12.3736C11.3296 12.0957 10.5367 12.287 9.3909 12.742L7.18727 14.9456C6.91594 15.2176 6.59363 15.4334 6.23878 15.5806C5.88393 15.7279 5.50352 15.8036 5.11934 15.8036C4.73516 15.8036 4.35476 15.7279 3.99991 15.5806C3.64506 15.4334 3.32274 15.2176 3.05142 14.9456C2.77943 14.6743 2.56364 14.352 2.41641 13.9971C2.26917 13.6423 2.19338 13.2619 2.19338 12.8777C2.19338 12.4935 2.26917 12.1131 2.41641 11.7582C2.56364 11.4034 2.77943 11.0811 3.05142 10.8098L5.25505 8.60612H5.84958L7.39406 7.39768C8.24062 7.30721 9.12595 7.57216 9.77217 8.22485C10.4184 8.87754 10.6898 9.75641 10.5993 10.603C11.0633 11.109 11.6831 11.2169 12.1742 10.7257L12.7377 9.39452C12.5632 8.39933 12.0915 7.44292 11.3225 6.67391C10.5831 5.93309 9.6329 5.4388 8.60186 5.25867L7.18662 4.82311L5.62275 5.61991C5.067 5.86548 4.54356 6.21444 4.08473 6.67326L1.49983 9.25817C-0.497013 11.255 -0.497013 14.5055 1.49983 16.5024C3.49667 18.4992 6.74719 18.4992 8.74403 16.5024L11.3289 13.9175C11.7698 13.4713 12.1247 12.9477 12.3758 12.373" fill="#555555"/>
<path d="M16.4994 1.49763C14.5026 -0.49921 11.252 -0.49921 9.25519 1.49763L6.67029 4.08254C6.21793 4.54136 5.86897 5.0648 5.6234 5.62056C6.55997 5.20417 7.59928 5.07594 8.60897 5.25221L10.8126 3.04857C11.0839 2.77659 11.4062 2.5608 11.7611 2.41356C12.1159 2.26633 12.4963 2.19054 12.8805 2.19054C13.2647 2.19054 13.6451 2.26633 14 2.41356C14.3548 2.5608 14.6771 2.77659 14.9485 3.04857C16.0858 4.1924 16.0923 6.04707 14.9485 7.18443L12.3635 9.76933C11.8724 10.2605 11.2456 10.5254 10.6058 10.5965C9.75925 10.687 8.87392 10.422 8.22769 9.76933C7.58147 9.11664 7.31005 8.23777 7.40052 7.39122C6.7543 7.4623 6.13392 7.72726 5.64279 8.21839L5.26151 8.59966C5.43599 9.59485 5.90774 10.5513 6.67675 11.3203C7.41612 12.0611 8.36633 12.5554 9.39736 12.7355C10.2101 12.8772 11.045 12.822 11.832 12.5746C12.619 12.3273 13.3354 11.8949 13.9209 11.3138L16.5059 8.72891C18.4962 6.74499 18.4962 3.49447 16.4994 1.49763Z" fill="#787878"/>
</svg>
