<svg width="18" height="18" viewBox="0 0 18 18" fill="none" xmlns="http://www.w3.org/2000/svg">
<path d="M9.70903 3.88234L12.5208 5.46281L14.1175 8.29146L5.17958 17.2294L2.14831 15.6271L0.770463 12.8215L9.70903 3.88234Z" fill="#FF822D"/>
<path d="M0.20436 16.6508L0.567215 17.4688L1.34966 17.7961L5.17148 17.2194L0.781062 12.829L0.20436 16.6508Z" fill="#FFCE7C"/>
<path d="M0.000488281 18L0.20436 16.6508L1.34966 17.7961L0.000488281 18Z" fill="#402A32"/>
<path d="M13.226 0.365394C13.3418 0.249553 13.4793 0.15766 13.6306 0.0949647C13.7819 0.0322694 13.9441 0 14.1079 0C14.2717 0 14.4338 0.0322694 14.5852 0.0949647C14.7365 0.15766 14.874 0.249553 14.9897 0.365394L17.6345 3.01074C17.8682 3.24457 17.9996 3.56168 17.9996 3.89231C17.9996 4.22295 17.8682 4.54006 17.6345 4.77389L15.4305 6.97845L12.6081 5.56693L11.0214 2.56995L13.226 0.365394Z" fill="#F92F60"/>
<path d="M11.0214 2.56995L15.4305 6.97845L14.1076 8.30081L9.69968 3.89294L11.0214 2.56995Z" fill="#D3D3D3"/>
</svg>
