<svg width="16" height="16" viewBox="0 0 16 16" fill="none" xmlns="http://www.w3.org/2000/svg">
<path d="M9.75331 1.75045C9.75331 0.789417 8.96961 0 8.00286 0C7.03611 0 6.24669 0.789417 6.25241 1.75045V6.25241H1.75045C0.789417 6.25241 0 7.03611 0 8.00286C0 8.96389 0.789417 9.75331 1.75045 9.75331H6.25241V14.2496C6.25241 15.2106 7.03611 16 8.00286 16C8.96389 16 9.75331 15.2163 9.75331 14.2496V9.75331H14.2496C15.2106 9.75331 16 8.96961 16 8.00286C16 7.04183 15.2163 6.25241 14.2496 6.25241H9.75331V1.75045Z" fill="white"/>
</svg>
