<svg width="26" height="24" viewBox="0 0 26 24" fill="none" xmlns="http://www.w3.org/2000/svg">
<path d="M18.6089 1.71167C12.4179 -1.44522 5.08043 -0.226772 1.73616 5.29594C-1.60812 10.8187 0.521401 18.1663 6.49549 21.7081C9.43085 23.449 14.168 25.2259 16.0936 22.8564C17.9803 20.5339 15.1963 19.0626 15.8462 17.7777C16.892 15.71 21.5692 18.4229 24.6292 15.0805C28.0759 11.3125 24.6375 4.78733 18.6089 1.71167ZM20.4615 13.8463C18.8508 13.8463 17.6923 12.6713 17.6923 11.0771C17.6923 9.48298 18.8508 8.30791 20.4615 8.30791C22.0723 8.30791 23.2307 9.48298 23.2307 11.0771C23.2307 12.6713 22.0723 13.8463 20.4615 13.8463Z" fill="#FBB8AB"/>
<path d="M11.4616 6.46178C11.7343 6.46178 12.0044 6.40805 12.2564 6.30368C12.5084 6.19931 12.7373 6.04632 12.9302 5.85346C13.123 5.66061 13.276 5.43165 13.3804 5.17967C13.4848 4.92769 13.5385 4.65762 13.5385 4.38487C13.5385 4.11213 13.4848 3.84206 13.3804 3.59008C13.276 3.3381 13.123 3.10914 12.9302 2.91628C12.7373 2.72342 12.5084 2.57044 12.2564 2.46607C12.0044 2.36169 11.7343 2.30797 11.4616 2.30797C10.9108 2.30797 10.3825 2.52679 9.99301 2.91628C9.60351 3.30578 9.3847 3.83404 9.3847 4.38487C9.3847 4.9357 9.60351 5.46397 9.99301 5.85346C10.3825 6.24296 10.9108 6.46178 11.4616 6.46178Z" fill="#8D65C5"/>
<path d="M5.92319 10.154C6.47402 10.154 7.00229 9.93523 7.39178 9.54573C7.78128 9.15624 8.0001 8.62797 8.0001 8.07714C8.0001 7.52631 7.78128 6.99805 7.39178 6.60855C7.00229 6.21906 6.47402 6.00024 5.92319 6.00024C5.37236 6.00024 4.8441 6.21906 4.4546 6.60855C4.06511 6.99805 3.84629 7.52631 3.84629 8.07714C3.84629 8.62797 4.06511 9.15624 4.4546 9.54573C4.8441 9.93523 5.37236 10.154 5.92319 10.154Z" fill="#F70A8D"/>
<path d="M5.92319 16.6155C6.19594 16.6155 6.46601 16.5618 6.71799 16.4574C6.96997 16.3531 7.19893 16.2001 7.39178 16.0072C7.58464 15.8144 7.73763 15.5854 7.842 15.3334C7.94637 15.0814 8.0001 14.8114 8.0001 14.5386C8.0001 14.2659 7.94637 13.9958 7.842 13.7438C7.73763 13.4918 7.58464 13.2629 7.39178 13.07C7.19893 12.8772 6.96997 12.7242 6.71799 12.6198C6.46601 12.5154 6.19594 12.4617 5.92319 12.4617C5.37236 12.4617 4.8441 12.6805 4.4546 13.07C4.06511 13.4595 3.84629 13.9878 3.84629 14.5386C3.84629 15.0894 4.06511 15.6177 4.4546 16.0072C4.8441 16.3967 5.37236 16.6155 5.92319 16.6155Z" fill="#00D26A"/>
<path d="M11.0001 20.7693C11.5509 20.7693 12.0792 20.5505 12.4687 20.161C12.8582 19.7715 13.077 19.2432 13.077 18.6924C13.077 18.1416 12.8582 17.6133 12.4687 17.2238C12.0792 16.8343 11.5509 16.6155 11.0001 16.6155C10.4492 16.6155 9.92097 16.8343 9.53147 17.2238C9.14198 17.6133 8.92316 18.1416 8.92316 18.6924C8.92316 19.2432 9.14198 19.7715 9.53147 20.161C9.92097 20.5505 10.4492 20.7693 11.0001 20.7693Z" fill="#3F5FFF"/>
</svg>
