<svg width="16" height="16" viewBox="0 0 16 16" fill="none" xmlns="http://www.w3.org/2000/svg">
<path d="M6.58286 0.171429L5.56 0.708571L5.66286 0.904L4.576 2.97371L3.34857 0.64L2.32571 1.17714L3.92343 4.21543L2.86229 6.23543L2.61829 5.77143L2.03429 0.92L0.434286 1.10857L2.20571 15.8229L3.80571 15.6286L3.58114 13.7646L4.54914 11.924L5.63771 13.9926L4.95429 15.2914L5.97714 15.8286L6.368 15.084L7.26857 14.6114L6.94286 13.9914L8.00343 11.9726L9.06629 13.992L8.44 15.1829L9.46286 15.72L9.71886 15.2331L9.73143 15.2571L10.7543 14.72L10.3714 13.992L11.4589 11.9234L12.3926 13.6983L12.16 15.6286L13.76 15.8229L15.5314 1.10857L13.9314 0.92L13.3349 5.87143L13.1451 6.23257L12.0823 4.21257L13.3771 1.74857L12.36 1.21143L11.4314 2.97714L9.99429 0.245714L8.97714 0.782857L9.04057 0.904L8.00457 2.87429L6.58286 0.171429ZM12.9469 9.092L12.6354 11.6789L12.1114 10.6823L12.9469 9.092ZM3.33771 11.7451L3.00629 8.98971L3.89657 10.6829L3.33771 11.7451ZM12.4931 7.47314L11.4589 9.44114L10.396 7.42057L11.4303 5.45143L12.4931 7.47314ZM10.8057 10.6823L9.71829 12.7509L8.656 10.7309L9.74343 8.66229L10.8057 10.6823ZM7.352 10.7331L6.29029 12.7514L5.20229 10.6829L6.264 8.66457L7.352 10.7331ZM9.092 7.42457L8.00457 9.492L6.91657 7.42343L8.00457 5.356L9.092 7.42457ZM10.7806 4.21429L9.74514 6.18286L8.65714 4.11486L9.69314 2.14571L10.7806 4.21429ZM3.51314 7.47257L4.57486 5.45371L5.61086 7.424L4.54914 9.44229L3.51314 7.47257ZM5.22743 4.21314L6.31543 2.14457L7.35143 4.11486L6.264 6.18343L5.22743 4.21314Z" fill="#BEBEBE"/>
<path d="M1.14286 2.28571H14.8571C15.4857 2.28571 16 1.77143 16 1.14286C16 0.514286 15.4857 0 14.8571 0H1.14286C0.514286 0 0 0.514286 0 1.14286C0 1.77143 0.514286 2.28571 1.14286 2.28571ZM2.85714 16H13.1429C13.7714 16 14.2857 15.4857 14.2857 14.8571C14.2857 14.2286 13.7714 13.7143 13.1429 13.7143H2.85714C2.22857 13.7143 1.71429 14.2286 1.71429 14.8571C1.71429 15.4857 2.22857 16 2.85714 16Z" fill="#9B9B9B"/>
</svg>
